REM MD5 3ccd9ea462123275e6bf8bac28d953f6
FILE "Euro Demo 10 (Germany).bin" BINARY
  TRACK 01 MODE2/2352
    INDEX 01 00:00:00
  TRACK 02 AUDIO
    INDEX 00 12:51:41
    INDEX 01 12:53:41
  TRACK 03 AUDIO
    INDEX 00 18:27:39
    INDEX 01 18:29:39
  TRACK 04 AUDIO
    INDEX 00 23:25:15
    INDEX 01 23:27:15
  TRACK 05 AUDIO
    INDEX 00 27:58:26
    INDEX 01 28:00:26
REM LEADOUT 31:17:56
